mtllib model_0.mtl
o model_0
v 205.0004425048828 69.27960205078125 1.614400029182434 
v 205.0004425048828 129.27960205078125 1.614400029182434 
v 201.7720947265625 69.27960205078125 37.126251220703125 
v 201.7720947265625 129.27960205078125 37.126251220703125 
v 192.08705139160156 69.27960205078125 69.40975189208984 
v 192.08705139160156 129.27960205078125 69.40975189208984 
v 175.94529724121094 69.27960205078125 101.69325256347656 
v 175.94529724121094 129.27960205078125 101.69325256347656 
v 156.5751953125 69.27960205078125 130.74839782714844 
v 156.5751953125 129.27960205078125 130.74839782714844 
v 130.74839782714844 69.27960205078125 156.5751953125 
v 130.74839782714844 129.27960205078125 156.5751953125 
v 101.69325256347656 69.27960205078125 175.94529724121094 
v 101.69325256347656 129.27960205078125 175.94529724121094 
v 69.40975189208984 69.27960205078125 192.08705139160156 
v 69.40975189208984 129.27960205078125 192.08705139160156 
v 37.126251220703125 69.27960205078125 201.7720947265625 
v 37.126251220703125 129.27960205078125 201.7720947265625 
v 1.614400029182434 69.27960205078125 205.0004425048828 
v 1.614400029182434 129.27960205078125 205.0004425048828 
v -37.12580108642578 69.27960205078125 201.7720947265625 
v -37.12580108642578 129.27960205078125 201.7720947265625 
v -69.4093017578125 69.27960205078125 192.08705139160156 
v -69.4093017578125 129.27960205078125 192.08705139160156 
v -101.69280242919922 69.27960205078125 175.94529724121094 
v -101.69280242919922 129.27960205078125 175.94529724121094 
v -130.74795532226562 69.27960205078125 156.5751953125 
v -130.74795532226562 129.27960205078125 156.5751953125 
v -156.5747528076172 69.27960205078125 130.74839782714844 
v -156.5747528076172 129.27960205078125 130.74839782714844 
v -175.94485473632812 69.27960205078125 101.69325256347656 
v -175.94485473632812 129.27960205078125 101.69325256347656 
v -192.0865936279297 69.27960205078125 69.40975189208984 
v -192.0865936279297 129.27960205078125 69.40975189208984 
v -201.7716522216797 69.27960205078125 37.126251220703125 
v -201.7716522216797 129.27960205078125 37.126251220703125 
v -205 69.27960205078125 1.614400029182434 
v -205 129.27960205078125 1.614400029182434 
v -201.7716522216797 69.27960205078125 -37.12580108642578 
v -201.7716522216797 129.27960205078125 -37.12580108642578 
v -192.0865936279297 69.27960205078125 -69.4093017578125 
v -192.0865936279297 129.27960205078125 -69.4093017578125 
v -175.94485473632812 69.27960205078125 -101.69280242919922 
v -175.94485473632812 129.27960205078125 -101.69280242919922 
v -156.5747528076172 69.27960205078125 -130.74795532226562 
v -156.5747528076172 129.27960205078125 -130.74795532226562 
v -130.74795532226562 69.27960205078125 -156.5747528076172 
v -130.74795532226562 129.27960205078125 -156.5747528076172 
v -101.69280242919922 69.27960205078125 -175.94485473632812 
v -101.69280242919922 129.27960205078125 -175.94485473632812 
v -69.4093017578125 69.27960205078125 -192.0865936279297 
v -69.4093017578125 129.27960205078125 -192.0865936279297 
v -37.12580108642578 69.27960205078125 -201.7716522216797 
v -37.12580108642578 129.27960205078125 -201.7716522216797 
v 1.614400029182434 69.27960205078125 -205 
v 1.614400029182434 129.27960205078125 -205 
v 37.126251220703125 69.27960205078125 -201.7716522216797 
v 37.126251220703125 129.27960205078125 -201.7716522216797 
v 69.40975189208984 69.27960205078125 -192.0865936279297 
v 69.40975189208984 129.27960205078125 -192.0865936279297 
v 101.69325256347656 69.27960205078125 -175.94485473632812 
v 101.69325256347656 129.27960205078125 -175.94485473632812 
v 130.74839782714844 69.27960205078125 -156.5747528076172 
v 130.74839782714844 129.27960205078125 -156.5747528076172 
v 156.5751953125 69.27960205078125 -130.74795532226562 
v 156.5751953125 129.27960205078125 -130.74795532226562 
v 175.94529724121094 69.27960205078125 -101.69280242919922 
v 175.94529724121094 129.27960205078125 -101.69280242919922 
v 192.08705139160156 69.27960205078125 -69.4093017578125 
v 192.08705139160156 129.27960205078125 -69.4093017578125 
v 201.7720947265625 69.27960205078125 -37.12580108642578 
v 201.7720947265625 129.27960205078125 -37.12580108642578 
v 205.0004425048828 69.27960205078125 1.614400029182434 
v 205.0004425048828 129.27960205078125 1.614400029182434 
v 201.7720947265625 129.27960205078125 37.126251220703125 
v 205.0004425048828 129.27960205078125 1.614400029182434 
v 1.614400029182434 129.27960205078125 1.614400029182434 
v 201.7720947265625 129.27960205078125 -37.12580108642578 
v 192.08705139160156 129.27960205078125 -69.4093017578125 
v 175.94529724121094 129.27960205078125 -101.69280242919922 
v 156.5751953125 129.27960205078125 -130.74795532226562 
v 130.74839782714844 129.27960205078125 -156.5747528076172 
v 101.69325256347656 129.27960205078125 -175.94485473632812 
v 69.40975189208984 129.27960205078125 -192.0865936279297 
v 37.126251220703125 129.27960205078125 -201.7716522216797 
v 1.614400029182434 129.27960205078125 -205 
v -37.12580108642578 129.27960205078125 -201.7716522216797 
v -69.4093017578125 129.27960205078125 -192.0865936279297 
v -101.69280242919922 129.27960205078125 -175.94485473632812 
v -130.74795532226562 129.27960205078125 -156.5747528076172 
v -156.5747528076172 129.27960205078125 -130.74795532226562 
v -175.94485473632812 129.27960205078125 -101.69280242919922 
v -192.0865936279297 129.27960205078125 -69.4093017578125 
v -201.7716522216797 129.27960205078125 -37.12580108642578 
v -205 129.27960205078125 1.614400029182434 
v -201.7716522216797 129.27960205078125 37.126251220703125 
v -192.0865936279297 129.27960205078125 69.40975189208984 
v -175.94485473632812 129.27960205078125 101.69325256347656 
v -156.5747528076172 129.27960205078125 130.74839782714844 
v -130.74795532226562 129.27960205078125 156.5751953125 
v -101.69280242919922 129.27960205078125 175.94529724121094 
v -69.4093017578125 129.27960205078125 192.08705139160156 
v -37.12580108642578 129.27960205078125 201.7720947265625 
v 1.614400029182434 129.27960205078125 205.0004425048828 
v 37.126251220703125 129.27960205078125 201.7720947265625 
v 69.40975189208984 129.27960205078125 192.08705139160156 
v 101.69325256347656 129.27960205078125 175.94529724121094 
v 130.74839782714844 129.27960205078125 156.5751953125 
v 156.5751953125 129.27960205078125 130.74839782714844 
v 175.94529724121094 129.27960205078125 101.69325256347656 
v 192.08705139160156 129.27960205078125 69.40975189208984 
v 201.7720947265625 69.27960205078125 37.126251220703125 
v 205.0004425048828 69.27960205078125 1.614400029182434 
v 1.614400029182434 69.27960205078125 1.614400029182434 
v 201.7720947265625 69.27960205078125 -37.12580108642578 
v 192.08705139160156 69.27960205078125 -69.4093017578125 
v 175.94529724121094 69.27960205078125 -101.69280242919922 
v 156.5751953125 69.27960205078125 -130.74795532226562 
v 130.74839782714844 69.27960205078125 -156.5747528076172 
v 101.69325256347656 69.27960205078125 -175.94485473632812 
v 69.40975189208984 69.27960205078125 -192.0865936279297 
v 37.126251220703125 69.27960205078125 -201.7716522216797 
v 1.614400029182434 69.27960205078125 -205 
v -37.12580108642578 69.27960205078125 -201.7716522216797 
v -69.4093017578125 69.27960205078125 -192.0865936279297 
v -101.69280242919922 69.27960205078125 -175.94485473632812 
v -130.74795532226562 69.27960205078125 -156.5747528076172 
v -156.5747528076172 69.27960205078125 -130.74795532226562 
v -175.94485473632812 69.27960205078125 -101.69280242919922 
v -192.0865936279297 69.27960205078125 -69.4093017578125 
v -201.7716522216797 69.27960205078125 -37.12580108642578 
v -205 69.27960205078125 1.614400029182434 
v -201.7716522216797 69.27960205078125 37.126251220703125 
v -192.0865936279297 69.27960205078125 69.40975189208984 
v -175.94485473632812 69.27960205078125 101.69325256347656 
v -156.5747528076172 69.27960205078125 130.74839782714844 
v -130.74795532226562 69.27960205078125 156.5751953125 
v -101.69280242919922 69.27960205078125 175.94529724121094 
v -69.4093017578125 69.27960205078125 192.08705139160156 
v -37.12580108642578 69.27960205078125 201.7720947265625 
v 1.614400029182434 69.27960205078125 205.0004425048828 
v 37.126251220703125 69.27960205078125 201.7720947265625 
v 69.40975189208984 69.27960205078125 192.08705139160156 
v 101.69325256347656 69.27960205078125 175.94529724121094 
v 130.74839782714844 69.27960205078125 156.5751953125 
v 156.5751953125 69.27960205078125 130.74839782714844 
v 175.94529724121094 69.27960205078125 101.69325256347656 
v 192.08705139160156 69.27960205078125 69.40975189208984 
v -203.54122924804688 4.917799949645996 0.008780799806118011 
v -203.54122924804688 5.199187278747559 3.121626615524292 
v -263.5350036621094 4.917799949645996 0.008780799806118011 
v -263.5350036621094 5.199187278747559 3.121626615524292 
v -203.54122924804688 6.008175849914551 6.164125919342041 
v -263.5350036621094 6.008175849914551 6.164125919342041 
v -203.54122924804688 7.327178001403809 8.995584487915039 
v -263.5350036621094 7.327178001403809 8.995584487915039 
v -203.54122924804688 9.121021270751953 11.56324291229248 
v -263.5350036621094 9.121021270751953 11.56324291229248 
v -203.54122924804688 11.354532241821289 13.796753883361816 
v -263.5350036621094 11.354532241821289 13.796753883361816 
v -203.54122924804688 13.92219066619873 15.590597152709961 
v -263.5350036621094 13.92219066619873 15.590597152709961 
v -203.54122924804688 16.75364875793457 16.90959930419922 
v -263.5350036621094 16.75364875793457 16.90959930419922 
v -203.54122924804688 19.7961483001709 17.71858787536621 
v -263.5350036621094 19.7961483001709 17.71858787536621 
v -203.54122924804688 22.92658042907715 17.999975204467773 
v -263.5350036621094 22.92658042907715 17.999975204467773 
v -203.54122924804688 26.039426803588867 17.71858787536621 
v -263.5350036621094 26.039426803588867 17.71858787536621 
v -203.54122924804688 29.081926345825195 16.90959930419922 
v -263.5350036621094 29.081926345825195 16.90959930419922 
v -203.54122924804688 31.91338539123535 15.590597152709961 
v -263.5350036621094 31.91338539123535 15.590597152709961 
v -203.54122924804688 34.48104476928711 13.796753883361816 
v -263.5350036621094 34.48104476928711 13.796753883361816 
v -203.54122924804688 36.71455383300781 11.56324291229248 
v -263.5350036621094 36.71455383300781 11.56324291229248 
v -203.54122924804688 38.50839614868164 8.995584487915039 
v -263.5350036621094 38.50839614868164 8.995584487915039 
v -203.54122924804688 39.82740020751953 6.164125919342041 
v -263.5350036621094 39.82740020751953 6.164125919342041 
v -203.54122924804688 40.63638687133789 3.121626615524292 
v -263.5350036621094 40.63638687133789 3.121626615524292 
v -203.54122924804688 40.91777420043945 0.008780799806118011 
v -263.5350036621094 40.91777420043945 0.008780799806118011 
v -203.54122924804688 40.63638687133789 -3.1216518878936768 
v -263.5350036621094 40.63638687133789 -3.1216518878936768 
v -203.54122924804688 39.82740020751953 -6.164150714874268 
v -263.5350036621094 39.82740020751953 -6.164150714874268 
v -203.54122924804688 38.50839614868164 -8.995609283447266 
v -263.5350036621094 38.50839614868164 -8.995609283447266 
v -203.54122924804688 36.71455383300781 -11.563267707824707 
v -263.5350036621094 36.71455383300781 -11.563267707824707 
v -203.54122924804688 34.48104476928711 -13.796778678894043 
v -263.5350036621094 34.48104476928711 -13.796778678894043 
v -203.54122924804688 31.91338539123535 -15.590621948242188 
v -263.5350036621094 31.91338539123535 -15.590621948242188 
v -203.54122924804688 29.081926345825195 -16.909624099731445 
v -263.5350036621094 29.081926345825195 -16.909624099731445 
v -203.54122924804688 26.039426803588867 -17.718612670898438 
v -263.5350036621094 26.039426803588867 -17.718612670898438 
v -203.54122924804688 22.92658042907715 -18 
v -263.5350036621094 22.92658042907715 -18 
v -203.54122924804688 19.7961483001709 -17.718612670898438 
v -263.5350036621094 19.7961483001709 -17.718612670898438 
v -203.54122924804688 16.75364875793457 -16.909624099731445 
v -263.5350036621094 16.75364875793457 -16.909624099731445 
v -203.54122924804688 13.92219066619873 -15.590621948242188 
v -263.5350036621094 13.92219066619873 -15.590621948242188 
v -203.54122924804688 11.354532241821289 -13.796778678894043 
v -263.5350036621094 11.354532241821289 -13.796778678894043 
v -203.54122924804688 9.121021270751953 -11.563267707824707 
v -263.5350036621094 9.121021270751953 -11.563267707824707 
v -203.54122924804688 7.327178001403809 -8.995609283447266 
v -263.5350036621094 7.327178001403809 -8.995609283447266 
v -203.54122924804688 6.008175849914551 -6.164150714874268 
v -263.5350036621094 6.008175849914551 -6.164150714874268 
v -203.54122924804688 5.199187278747559 -3.1216518878936768 
v -263.5350036621094 5.199187278747559 -3.1216518878936768 
v -203.54122924804688 4.917799949645996 0.008780799806118011 
v -263.5350036621094 4.917799949645996 0.008780799806118011 
v 203.5409698486328 4.917799949645996 0.008780799806118011 
v 203.5409698486328 5.199187278747559 3.121626615524292 
v 263.5347595214844 4.917799949645996 0.008780799806118011 
v 263.5347595214844 5.199187278747559 3.121626615524292 
v 203.5409698486328 6.008175849914551 6.164125919342041 
v 263.5347595214844 6.008175849914551 6.164125919342041 
v 203.5409698486328 7.327178001403809 8.995584487915039 
v 263.5347595214844 7.327178001403809 8.995584487915039 
v 203.5409698486328 9.121021270751953 11.56324291229248 
v 263.5347595214844 9.121021270751953 11.56324291229248 
v 203.5409698486328 11.354532241821289 13.796753883361816 
v 263.5347595214844 11.354532241821289 13.796753883361816 
v 203.5409698486328 13.92219066619873 15.590597152709961 
v 263.5347595214844 13.92219066619873 15.590597152709961 
v 203.5409698486328 16.75364875793457 16.90959930419922 
v 263.5347595214844 16.75364875793457 16.90959930419922 
v 203.5409698486328 19.7961483001709 17.71858787536621 
v 263.5347595214844 19.7961483001709 17.71858787536621 
v 203.5409698486328 22.92658042907715 17.999975204467773 
v 263.5347595214844 22.92658042907715 17.999975204467773 
v 203.5409698486328 26.039426803588867 17.71858787536621 
v 263.5347595214844 26.039426803588867 17.71858787536621 
v 203.5409698486328 29.081926345825195 16.90959930419922 
v 263.5347595214844 29.081926345825195 16.90959930419922 
v 203.5409698486328 31.91338539123535 15.590597152709961 
v 263.5347595214844 31.91338539123535 15.590597152709961 
v 203.5409698486328 34.48104476928711 13.796753883361816 
v 263.5347595214844 34.48104476928711 13.796753883361816 
v 203.5409698486328 36.71455383300781 11.56324291229248 
v 263.5347595214844 36.71455383300781 11.56324291229248 
v 203.5409698486328 38.50839614868164 8.995584487915039 
v 263.5347595214844 38.50839614868164 8.995584487915039 
v 203.5409698486328 39.82740020751953 6.164125919342041 
v 263.5347595214844 39.82740020751953 6.164125919342041 
v 203.5409698486328 40.63638687133789 3.121626615524292 
v 263.5347595214844 40.63638687133789 3.121626615524292 
v 203.5409698486328 40.91777420043945 0.008780799806118011 
v 263.5347595214844 40.91777420043945 0.008780799806118011 
v 203.5409698486328 40.63638687133789 -3.1216518878936768 
v 263.5347595214844 40.63638687133789 -3.1216518878936768 
v 203.5409698486328 39.82740020751953 -6.164150714874268 
v 263.5347595214844 39.82740020751953 -6.164150714874268 
v 203.5409698486328 38.50839614868164 -8.995609283447266 
v 263.5347595214844 38.50839614868164 -8.995609283447266 
v 203.5409698486328 36.71455383300781 -11.563267707824707 
v 263.5347595214844 36.71455383300781 -11.563267707824707 
v 203.5409698486328 34.48104476928711 -13.796778678894043 
v 263.5347595214844 34.48104476928711 -13.796778678894043 
v 203.5409698486328 31.91338539123535 -15.590621948242188 
v 263.5347595214844 31.91338539123535 -15.590621948242188 
v 203.5409698486328 29.081926345825195 -16.909624099731445 
v 263.5347595214844 29.081926345825195 -16.909624099731445 
v 203.5409698486328 26.039426803588867 -17.718612670898438 
v 263.5347595214844 26.039426803588867 -17.718612670898438 
v 203.5409698486328 22.92658042907715 -18 
v 263.5347595214844 22.92658042907715 -18 
v 203.5409698486328 19.7961483001709 -17.718612670898438 
v 263.5347595214844 19.7961483001709 -17.718612670898438 
v 203.5409698486328 16.75364875793457 -16.909624099731445 
v 263.5347595214844 16.75364875793457 -16.909624099731445 
v 203.5409698486328 13.92219066619873 -15.590621948242188 
v 263.5347595214844 13.92219066619873 -15.590621948242188 
v 203.5409698486328 11.354532241821289 -13.796778678894043 
v 263.5347595214844 11.354532241821289 -13.796778678894043 
v 203.5409698486328 9.121021270751953 -11.563267707824707 
v 263.5347595214844 9.121021270751953 -11.563267707824707 
v 203.5409698486328 7.327178001403809 -8.995609283447266 
v 263.5347595214844 7.327178001403809 -8.995609283447266 
v 203.5409698486328 6.008175849914551 -6.164150714874268 
v 263.5347595214844 6.008175849914551 -6.164150714874268 
v 203.5409698486328 5.199187278747559 -3.1216518878936768 
v 263.5347595214844 5.199187278747559 -3.1216518878936768 
v 203.5409698486328 4.917799949645996 0.008780799806118011 
v 263.5347595214844 4.917799949645996 0.008780799806118011 
v -263.5350036621094 5.199187278747559 3.121626615524292 
v -263.5350036621094 22.92658042907715 0.008780799806118011 
v -263.5350036621094 4.917799949645996 0.008780799806118011 
v -263.5350036621094 5.199187278747559 -3.1216518878936768 
v -263.5350036621094 6.008175849914551 -6.164150714874268 
v -263.5350036621094 7.327178001403809 -8.995609283447266 
v -263.5350036621094 9.121021270751953 -11.563267707824707 
v -263.5350036621094 11.354532241821289 -13.796778678894043 
v -263.5350036621094 13.92219066619873 -15.590621948242188 
v -263.5350036621094 16.75364875793457 -16.909624099731445 
v -263.5350036621094 6.008175849914551 6.164125919342041 
v -263.5350036621094 7.327178001403809 8.995584487915039 
v -263.5350036621094 9.121021270751953 11.56324291229248 
v -263.5350036621094 11.354532241821289 13.796753883361816 
v -263.5350036621094 13.92219066619873 15.590597152709961 
v -263.5350036621094 16.75364875793457 16.90959930419922 
v -263.5350036621094 19.7961483001709 17.71858787536621 
v -263.5350036621094 22.92658042907715 17.999975204467773 
v -263.5350036621094 26.039426803588867 17.71858787536621 
v -263.5350036621094 29.081926345825195 16.90959930419922 
v -263.5350036621094 31.91338539123535 15.590597152709961 
v -263.5350036621094 34.48104476928711 13.796753883361816 
v -263.5350036621094 36.71455383300781 11.56324291229248 
v -263.5350036621094 19.7961483001709 -17.718612670898438 
v -263.5350036621094 22.92658042907715 -18 
v -263.5350036621094 26.039426803588867 -17.718612670898438 
v -263.5350036621094 29.081926345825195 -16.909624099731445 
v -263.5350036621094 31.91338539123535 -15.590621948242188 
v -263.5350036621094 34.48104476928711 -13.796778678894043 
v -263.5350036621094 36.71455383300781 -11.563267707824707 
v -263.5350036621094 38.50839614868164 -8.995609283447266 
v -263.5350036621094 39.82740020751953 -6.164150714874268 
v -263.5350036621094 40.63638687133789 -3.1216518878936768 
v -263.5350036621094 40.91777420043945 0.008780799806118011 
v -263.5350036621094 40.63638687133789 3.121626615524292 
v -263.5350036621094 39.82740020751953 6.164125919342041 
v -263.5350036621094 38.50839614868164 8.995584487915039 
v -203.54122924804688 5.199187278747559 3.121626615524292 
v -203.54122924804688 4.917799949645996 0.008780799806118011 
v -203.54122924804688 22.92658042907715 0.008780799806118011 
v -203.54122924804688 5.199187278747559 -3.1216518878936768 
v -203.54122924804688 6.008175849914551 -6.164150714874268 
v -203.54122924804688 7.327178001403809 -8.995609283447266 
v -203.54122924804688 9.121021270751953 -11.563267707824707 
v -203.54122924804688 11.354532241821289 -13.796778678894043 
v -203.54122924804688 13.92219066619873 -15.590621948242188 
v -203.54122924804688 16.75364875793457 -16.909624099731445 
v -203.54122924804688 19.7961483001709 -17.718612670898438 
v -203.54122924804688 22.92658042907715 -18 
v -203.54122924804688 26.039426803588867 -17.718612670898438 
v -203.54122924804688 29.081926345825195 -16.909624099731445 
v -203.54122924804688 31.91338539123535 -15.590621948242188 
v -203.54122924804688 34.48104476928711 -13.796778678894043 
v -203.54122924804688 36.71455383300781 -11.563267707824707 
v -203.54122924804688 38.50839614868164 -8.995609283447266 
v -203.54122924804688 39.82740020751953 -6.164150714874268 
v -203.54122924804688 40.63638687133789 -3.1216518878936768 
v -203.54122924804688 40.91777420043945 0.008780799806118011 
v -203.54122924804688 40.63638687133789 3.121626615524292 
v -203.54122924804688 39.82740020751953 6.164125919342041 
v -203.54122924804688 38.50839614868164 8.995584487915039 
v -203.54122924804688 36.71455383300781 11.56324291229248 
v -203.54122924804688 34.48104476928711 13.796753883361816 
v -203.54122924804688 31.91338539123535 15.590597152709961 
v -203.54122924804688 29.081926345825195 16.90959930419922 
v -203.54122924804688 26.039426803588867 17.71858787536621 
v -203.54122924804688 22.92658042907715 17.999975204467773 
v -203.54122924804688 19.7961483001709 17.71858787536621 
v -203.54122924804688 16.75364875793457 16.90959930419922 
v -203.54122924804688 13.92219066619873 15.590597152709961 
v -203.54122924804688 11.354532241821289 13.796753883361816 
v -203.54122924804688 9.121021270751953 11.56324291229248 
v -203.54122924804688 7.327178001403809 8.995584487915039 
v -203.54122924804688 6.008175849914551 6.164125919342041 
v 263.5347595214844 5.199187278747559 3.121626615524292 
v 263.5347595214844 22.92658042907715 0.008780799806118011 
v 263.5347595214844 4.917799949645996 0.008780799806118011 
v 263.5347595214844 5.199187278747559 -3.1216518878936768 
v 263.5347595214844 6.008175849914551 -6.164150714874268 
v 263.5347595214844 7.327178001403809 -8.995609283447266 
v 263.5347595214844 9.121021270751953 -11.563267707824707 
v 263.5347595214844 11.354532241821289 -13.796778678894043 
v 263.5347595214844 13.92219066619873 -15.590621948242188 
v 263.5347595214844 16.75364875793457 -16.909624099731445 
v 263.5347595214844 19.7961483001709 -17.718612670898438 
v 263.5347595214844 22.92658042907715 -18 
v 263.5347595214844 26.039426803588867 -17.718612670898438 
v 263.5347595214844 29.081926345825195 -16.909624099731445 
v 263.5347595214844 31.91338539123535 -15.590621948242188 
v 263.5347595214844 34.48104476928711 -13.796778678894043 
v 263.5347595214844 36.71455383300781 -11.563267707824707 
v 263.5347595214844 38.50839614868164 -8.995609283447266 
v 263.5347595214844 39.82740020751953 -6.164150714874268 
v 263.5347595214844 40.63638687133789 -3.1216518878936768 
v 263.5347595214844 40.91777420043945 0.008780799806118011 
v 263.5347595214844 40.63638687133789 3.121626615524292 
v 263.5347595214844 39.82740020751953 6.164125919342041 
v 263.5347595214844 38.50839614868164 8.995584487915039 
v 263.5347595214844 36.71455383300781 11.56324291229248 
v 263.5347595214844 34.48104476928711 13.796753883361816 
v 263.5347595214844 31.91338539123535 15.590597152709961 
v 263.5347595214844 29.081926345825195 16.90959930419922 
v 263.5347595214844 26.039426803588867 17.71858787536621 
v 263.5347595214844 22.92658042907715 17.999975204467773 
v 263.5347595214844 19.7961483001709 17.71858787536621 
v 263.5347595214844 16.75364875793457 16.90959930419922 
v 263.5347595214844 13.92219066619873 15.590597152709961 
v 263.5347595214844 11.354532241821289 13.796753883361816 
v 263.5347595214844 9.121021270751953 11.56324291229248 
v 263.5347595214844 7.327178001403809 8.995584487915039 
v 263.5347595214844 6.008175849914551 6.164125919342041 
v 203.5409698486328 5.199187278747559 3.121626615524292 
v 203.5409698486328 4.917799949645996 0.008780799806118011 
v 203.5409698486328 22.92658042907715 0.008780799806118011 
v 203.5409698486328 5.199187278747559 -3.1216518878936768 
v 203.5409698486328 6.008175849914551 -6.164150714874268 
v 203.5409698486328 7.327178001403809 -8.995609283447266 
v 203.5409698486328 9.121021270751953 -11.563267707824707 
v 203.5409698486328 11.354532241821289 -13.796778678894043 
v 203.5409698486328 13.92219066619873 -15.590621948242188 
v 203.5409698486328 16.75364875793457 -16.909624099731445 
v 203.5409698486328 19.7961483001709 -17.718612670898438 
v 203.5409698486328 22.92658042907715 -18 
v 203.5409698486328 26.039426803588867 -17.718612670898438 
v 203.5409698486328 29.081926345825195 -16.909624099731445 
v 203.5409698486328 31.91338539123535 -15.590621948242188 
v 203.5409698486328 34.48104476928711 -13.796778678894043 
v 203.5409698486328 36.71455383300781 -11.563267707824707 
v 203.5409698486328 38.50839614868164 -8.995609283447266 
v 203.5409698486328 39.82740020751953 -6.164150714874268 
v 203.5409698486328 40.63638687133789 -3.1216518878936768 
v 203.5409698486328 40.91777420043945 0.008780799806118011 
v 203.5409698486328 40.63638687133789 3.121626615524292 
v 203.5409698486328 39.82740020751953 6.164125919342041 
v 203.5409698486328 38.50839614868164 8.995584487915039 
v 203.5409698486328 36.71455383300781 11.56324291229248 
v 203.5409698486328 34.48104476928711 13.796753883361816 
v 203.5409698486328 31.91338539123535 15.590597152709961 
v 203.5409698486328 29.081926345825195 16.90959930419922 
v 203.5409698486328 26.039426803588867 17.71858787536621 
v 203.5409698486328 22.92658042907715 17.999975204467773 
v 203.5409698486328 19.7961483001709 17.71858787536621 
v 203.5409698486328 16.75364875793457 16.90959930419922 
v 203.5409698486328 13.92219066619873 15.590597152709961 
v 203.5409698486328 11.354532241821289 13.796753883361816 
v 203.5409698486328 9.121021270751953 11.56324291229248 
v 203.5409698486328 7.327178001403809 8.995584487915039 
v 203.5409698486328 6.008175849914551 6.164125919342041 
vn 0.9995967149734497 0 -0.028397228568792343 
vn 0.9995967149734497 0 0.028397228568792343 
vn 0.9893063306808472 0 0.1458524912595749 
vn 0.9794304966926575 0 0.2017817199230194 
vn 0.9488729238510132 0 0.31565824151039124 
vn 0.9294221997261047 0 0.3690181374549866 
vn 0.8795284628868103 0 0.4758462607860565 
vn 0.85109543800354 0 0.5250110030174255 
vn 0.7833857536315918 0 0.6215357780456543 
vn 0.74683678150177 0 0.6650074124336243 
vn 0.6633741855621338 0 0.7482877969741821 
vn 0.6198228597640991 0 0.7847417593002319 
vn 0.5268691182136536 0 0.8499464392662048 
vn 0.47392362356185913 0 0.8805659413337708 
vn 0.3710477650165558 0 0.9286137819290161 
vn 0.31358450651168823 0 0.949560284614563 
vn 0.20392099022865295 0 0.9789873361587524 
vn 0.1436908096075058 0 0.9896226525306702 
vn 0.030580973252654076 0 0.9995322823524475 
vn -0.0303741954267025 0.0035502342507243156 0.9995322823524475 
vn -0.1436423808336258 0.0037303080316632986 0.9896226525306702 
vn -0.20388658344745636 0.0037462026812136173 0.9789873361587524 
vn -0.31358450651168823 -6.485651994842315e-14 0.949560284614563 
vn -0.3710477650165558 -7.674125278387539e-14 0.9286137819290161 
vn -0.4739086329936981 0.003769264090806246 0.8805659413337708 
vn -0.5268691182136536 -1.0896871512761086e-13 0.8499464392662048 
vn -0.6198114156723022 0.00376638094894588 0.7847417593002319 
vn -0.663363516330719 0.003768608206883073 0.7482877969741821 
vn -0.74683678150177 -1.5446309867012814e-13 0.6650074124336243 
vn -0.7833766937255859 0.0037688659504055977 0.6215357780456543 
vn -0.8510870933532715 0.003771207993850112 0.5250110030174255 
vn -0.8795284628868103 -1.8190681708336875e-13 0.4758462607860565 
vn -0.9294221997261047 -1.9222598231054266e-13 0.3690181374549866 
vn -0.9488729238510132 -1.96670235435778e-13 0.31565824151039124 
vn -0.9794232249259949 0.003775416174903512 0.2017817199230194 
vn -0.9893063306808472 -2.046114064855123e-13 0.1458524912595749 
vn -0.9995967149734497 -2.0673969535010134e-13 0.028397228568792343 
vn -0.9995967149734497 -2.0673969535010134e-13 -0.028397228568792343 
vn -0.9892991185188293 0.0037764154840260744 -0.1458524912595749 
vn -0.9794232249259949 0.003775416174903512 -0.2017817199230194 
vn -0.9488654136657715 0.003778155194595456 -0.31565824151039124 
vn -0.9294145107269287 0.0037773065268993378 -0.3690181374549866 
vn -0.8795284628868103 -1.8190681708336875e-13 -0.4758462607860565 
vn -0.85109543800354 -1.7602619936749747e-13 -0.5250110030174255 
vn -0.7833857536315918 -1.6202227818944148e-13 -0.6215357780456543 
vn -0.7468271851539612 0.003778175450861454 -0.6650074124336243 
vn -0.6633741855621338 -1.3720110930617174e-13 -0.7482877969741821 
vn -0.6198112964630127 0.003781007369980216 -0.7847417593002319 
vn -0.5268691182136536 -1.0896871512761086e-13 -0.8499464392662048 
vn -0.47392362356185913 -9.80183545006702e-14 -0.8805659413337708 
vn -0.3710477650165558 -7.674125278387539e-14 -0.9286137819290161 
vn -0.31358450651168823 -6.485651994842315e-14 -0.949560284614563 
vn -0.2038857638835907 0.0037905313074588776 -0.9789873361587524 
vn -0.14364074170589447 0.0037929879035800695 -0.9896226525306702 
vn -0.030339833348989487 0.003832812188193202 -0.9995322823524475 
vn 0.030580973252654076 0 -0.9995322823524475 
vn 0.1436908096075058 0 -0.9896226525306702 
vn 0.20392099022865295 0 -0.9789873361587524 
vn 0.31358450651168823 0 -0.949560284614563 
vn 0.3710477650165558 0 -0.9286137819290161 
vn 0.47392362356185913 0 -0.8805659413337708 
vn 0.5268691182136536 0 -0.8499464392662048 
vn 0.6198228597640991 0 -0.7847417593002319 
vn 0.6633741855621338 0 -0.7482877969741821 
vn 0.74683678150177 0 -0.6650074124336243 
vn 0.7833857536315918 0 -0.6215357780456543 
vn 0.85109543800354 0 -0.5250110030174255 
vn 0.8795284628868103 0 -0.4758462607860565 
vn 0.9294221997261047 0 -0.3690181374549866 
vn 0.9488729238510132 0 -0.31565824151039124 
vn 0.9794304966926575 0 -0.2017817199230194 
vn 0.9893063306808472 0 -0.1458524912595749 
vn 0.9995967149734497 0 -0.028397228568792343 
vn 0.9995967149734497 0 0.028397228568792343 
vn -1.0341130485562108e-13 0.999997615814209 0.002184694167226553 
vn -1.0341130485562108e-13 0.999997615814209 0.002184694167226553 
vn -1.0341130485562108e-13 0.999997615814209 0.002184694167226553 
vn -1.0341130485562108e-13 0.999997615814209 0.002184694167226553 
vn -1.0341130485562108e-13 0.999997615814209 0.002184694167226553 
vn -1.0341130485562108e-13 0.999997615814209 0.002184694167226553 
vn -1.0341130485562108e-13 0.999997615814209 0.002184694167226553 
vn -1.0341130485562108e-13 0.999997615814209 0.002184694167226553 
vn -1.0341130485562108e-13 0.999997615814209 0.002184694167226553 
vn -1.0341130485562108e-13 0.999997615814209 0.002184694167226553 
vn -1.0341130485562108e-13 0.999997615814209 0.002184694167226553 
vn -1.0341130485562108e-13 0.999997615814209 0.002184694167226553 
vn -1.0341130485562108e-13 0.999997615814209 0.002184694167226553 
vn -1.0341130485562108e-13 0.999997615814209 0.002184694167226553 
vn -1.0341130485562108e-13 0.999997615814209 0.002184694167226553 
vn -1.0341130485562108e-13 0.999997615814209 0.002184694167226553 
vn -1.0341130485562108e-13 0.999997615814209 0.002184694167226553 
vn -1.0341130485562108e-13 0.999997615814209 0.002184694167226553 
vn -1.0341130485562108e-13 0.999997615814209 0.002184694167226553 
vn -1.0341130485562108e-13 0.999997615814209 0.002184694167226553 
vn -1.0341130485562108e-13 0.999997615814209 0.002184694167226553 
vn -1.0341130485562108e-13 0.999997615814209 0.002184694167226553 
vn -1.0341130485562108e-13 0.999997615814209 0.002184694167226553 
vn -1.0341130485562108e-13 0.999997615814209 0.002184694167226553 
vn -1.0341130485562108e-13 0.999997615814209 0.002184694167226553 
vn -1.0341130485562108e-13 0.999997615814209 0.002184694167226553 
vn -1.0341130485562108e-13 0.999997615814209 0.002184694167226553 
vn -1.0341130485562108e-13 0.999997615814209 0.002184694167226553 
vn -1.0341130485562108e-13 0.999997615814209 0.002184694167226553 
vn -1.0341130485562108e-13 0.999997615814209 0.002184694167226553 
vn -1.0341130485562108e-13 0.999997615814209 0.002184694167226553 
vn -1.0341130485562108e-13 0.999997615814209 0.002184694167226553 
vn -1.0341130485562108e-13 0.999997615814209 0.002184694167226553 
vn -1.0341130485562108e-13 0.999997615814209 0.002184694167226553 
vn -1.0341130485562108e-13 0.999997615814209 0.002184694167226553 
vn -1.0341130485562108e-13 0.999997615814209 0.002184694167226553 
vn -1.0341130485562108e-13 0.999997615814209 0.002184694167226553 
vn 3.097898456858039e-13 -0.999997615814209 0.002184694167226553 
vn 3.097898456858039e-13 -0.999997615814209 0.002184694167226553 
vn 3.097898456858039e-13 -0.999997615814209 0.002184694167226553 
vn 3.097898456858039e-13 -0.999997615814209 0.002184694167226553 
vn 3.097898456858039e-13 -0.999997615814209 0.002184694167226553 
vn 3.097898456858039e-13 -0.999997615814209 0.002184694167226553 
vn 3.097898456858039e-13 -0.999997615814209 0.002184694167226553 
vn 3.097898456858039e-13 -0.999997615814209 0.002184694167226553 
vn 3.097898456858039e-13 -0.999997615814209 0.002184694167226553 
vn 3.097898456858039e-13 -0.999997615814209 0.002184694167226553 
vn 3.097898456858039e-13 -0.999997615814209 0.002184694167226553 
vn 3.097898456858039e-13 -0.999997615814209 0.002184694167226553 
vn 3.097898456858039e-13 -0.999997615814209 0.002184694167226553 
vn 3.097898456858039e-13 -0.999997615814209 0.002184694167226553 
vn 3.097898456858039e-13 -0.999997615814209 0.002184694167226553 
vn 3.097898456858039e-13 -0.999997615814209 0.002184694167226553 
vn 3.097898456858039e-13 -0.999997615814209 0.002184694167226553 
vn 3.097898456858039e-13 -0.999997615814209 0.002184694167226553 
vn 3.097898456858039e-13 -0.999997615814209 0.002184694167226553 
vn 3.097898456858039e-13 -0.999997615814209 0.002184694167226553 
vn 3.097898456858039e-13 -0.999997615814209 0.002184694167226553 
vn 3.097898456858039e-13 -0.999997615814209 0.002184694167226553 
vn 3.097898456858039e-13 -0.999997615814209 0.002184694167226553 
vn 3.097898456858039e-13 -0.999997615814209 0.002184694167226553 
vn 3.097898456858039e-13 -0.999997615814209 0.002184694167226553 
vn 3.097898456858039e-13 -0.999997615814209 0.002184694167226553 
vn 3.097898456858039e-13 -0.999997615814209 0.002184694167226553 
vn 3.097898456858039e-13 -0.999997615814209 0.002184694167226553 
vn 3.097898456858039e-13 -0.999997615814209 0.002184694167226553 
vn 3.097898456858039e-13 -0.999997615814209 0.002184694167226553 
vn 3.097898456858039e-13 -0.999997615814209 0.002184694167226553 
vn 3.097898456858039e-13 -0.999997615814209 0.002184694167226553 
vn 3.097898456858039e-13 -0.999997615814209 0.002184694167226553 
vn 3.097898456858039e-13 -0.999997615814209 0.002184694167226553 
vn 3.097898456858039e-13 -0.999997615814209 0.002184694167226553 
vn 3.097898456858039e-13 -0.999997615814209 0.002184694167226553 
vn 3.097898456858039e-13 -0.999997615814209 0.002184694167226553 
vn 3.096656503269457e-13 -0.9995967149734497 -0.028397228568792343 
vn 3.064777706791866e-13 -0.9893063306808472 0.1458524912595749 
vn 3.096656503269457e-13 -0.9995967149734497 0.028397228568792343 
vn -0.0018877115799114108 -0.9794287085533142 0.2017817199230194 
vn 0.003773372620344162 -0.9488654732704163 0.31565824151039124 
vn 0.003772426163777709 -0.9294145107269287 0.3690181374549866 
vn 2.732507959051639e-13 -0.8795284628868103 0.4758462607860565 
vn 0.0018856085371226072 -0.8510933518409729 0.5250110030174255 
vn 0.0018844384467229247 -0.7833834886550903 0.6215357780456543 
vn 0.003772101132199168 -0.746827244758606 0.6650074124336243 
vn 0.0018843116704374552 -0.6633715033531189 0.7482877969741821 
vn 0.0018831990892067552 -0.6198199987411499 0.7847417593002319 
vn 1.6368704352023866e-13 -0.5268691182136536 0.8499464392662048 
vn -0.0018846469465643167 -0.4739198684692383 0.8805659413337708 
vn 0.0037601967342197895 -0.37102872133255005 0.9286137819290161 
vn 0.0037600426003336906 -0.31356194615364075 0.949560284614563 
vn -0.0018731803866103292 -0.2039123922586441 0.9789873361587524 
vn 0.0018653111765161157 -0.1436787098646164 0.9896226525306702 
vn -0.0017781255301088095 -0.030529234558343887 0.9995322823524475 
vn -0.0017781255301088095 0.030529234558343887 0.9995322823524475 
vn 0.0018653111765161157 0.1436787098646164 0.9896226525306702 
vn -0.0018731803866103292 0.2039123922586441 0.9789873361587524 
vn 0.0037600426003336906 0.31356194615364075 0.949560284614563 
vn 0.0037601967342197895 0.37102872133255005 0.9286137819290161 
vn -0.0018846469465643167 0.4739198684692383 0.8805659413337708 
vn -5.448435756380543e-14 0.5268691182136536 0.8499464392662048 
vn 0.0018831990892067552 0.6198199987411499 0.7847417593002319 
vn 0.0018843116704374552 0.6633715033531189 0.7482877969741821 
vn 0.003772101132199168 0.746827244758606 0.6650074124336243 
vn 0.0018844384467229247 0.7833834886550903 0.6215357780456543 
vn 0.0018856085371226072 0.8510933518409729 0.5250110030174255 
vn -9.095340854168438e-14 0.8795284628868103 0.4758462607860565 
vn 0.003772426163777709 0.9294145107269287 0.3690181374549866 
vn 0.003773372620344162 0.9488654732704163 0.31565824151039124 
vn -0.0018877115799114108 0.9794287085533142 0.2017817199230194 
vn -1.0230570324275615e-13 0.9893063306808472 0.1458524912595749 
vn -1.0336984767505067e-13 0.9995967149734497 0.028397228568792343 
vn -1.0336984767505067e-13 0.9995967149734497 -0.028397228568792343 
vn -0.001888211234472692 0.9893045425415039 -0.1458524912595749 
vn -0.0018877115799114108 0.9794287085533142 -0.2017817199230194 
vn 0.0018890813225880265 0.9488710761070251 -0.31565824151039124 
vn 0.0018886571051552892 0.9294202923774719 -0.3690181374549866 
vn -9.095340854168438e-14 0.8795284628868103 -0.4758462607860565 
vn -8.801309968374874e-14 0.85109543800354 -0.5250110030174255 
vn -8.101113909472074e-14 0.7833857536315918 -0.6215357780456543 
vn 0.001889093779027462 0.746834397315979 -0.6650074124336243 
vn -6.860055465308587e-14 0.6633741855621338 -0.7482877969741821 
vn -0.0018905125325545669 0.6198199391365051 -0.7847417593002319 
vn 0.0037789817433804274 0.5268555879592896 -0.8499464392662048 
vn 0.0037788304034620523 0.47390857338905334 -0.8805659413337708 
vn -3.8370626391937696e-14 0.3710477650165558 -0.9286137819290161 
vn -3.2428259974211573e-14 0.31358450651168823 -0.949560284614563 
vn 0.0018953474937006831 0.2039121836423874 -0.9789873361587524 
vn -0.0018966591451317072 0.14367829263210297 -0.9896226525306702 
vn 0.001920195179991424 0.03052062913775444 -0.9995322823524475 
vn 0.001920195179991424 -0.03052062913775444 -0.9995322823524475 
vn -0.0018966591451317072 -0.14367829263210297 -0.9896226525306702 
vn 0.0018953474937006831 -0.2039121836423874 -0.9789873361587524 
vn 9.714552431797432e-14 -0.31358450651168823 -0.949560284614563 
vn 1.1494710077438602e-13 -0.3710477650165558 -0.9286137819290161 
vn 0.0037788304034620523 -0.47390857338905334 -0.8805659413337708 
vn 0.0037789817433804274 -0.5268555879592896 -0.8499464392662048 
vn -0.0018905125325545669 -0.6198199391365051 -0.7847417593002319 
vn 2.0550706590020257e-13 -0.6633741855621338 -0.7482877969741821 
vn 0.001889093779027462 -0.746834397315979 -0.6650074124336243 
vn 2.426855374645931e-13 -0.7833857536315918 -0.6215357780456543 
vn 2.6441725870483823e-13 -0.85109543800354 -0.5250110030174255 
vn 2.732507959051639e-13 -0.8795284628868103 -0.4758462607860565 
vn 0.0018886571051552892 -0.9294202923774719 -0.3690181374549866 
vn 0.0018890813225880265 -0.9488710761070251 -0.31565824151039124 
vn -0.0018877115799114108 -0.9794287085533142 -0.2017817199230194 
vn -0.001888211234472692 -0.9893045425415039 -0.1458524912595749 
vn 3.096656503269457e-13 -0.9995967149734497 -0.028397228568792343 
vn 3.096656503269457e-13 -0.9995967149734497 0.028397228568792343 
vn 3.096656503269457e-13 -0.9995967149734497 -0.028397228568792343 
vn 3.064777706791866e-13 -0.9893063306808472 0.1458524912595749 
vn 3.096656503269457e-13 -0.9995967149734497 0.028397228568792343 
vn -0.0018877115799114108 -0.9794287085533142 0.2017817199230194 
vn 0.003773372620344162 -0.9488654732704163 0.31565824151039124 
vn 0.003772426163777709 -0.9294145107269287 0.3690181374549866 
vn 2.732507959051639e-13 -0.8795284628868103 0.4758462607860565 
vn 0.0018856085371226072 -0.8510933518409729 0.5250110030174255 
vn 0.0018844384467229247 -0.7833834886550903 0.6215357780456543 
vn 0.003772101132199168 -0.746827244758606 0.6650074124336243 
vn 0.0018843116704374552 -0.6633715033531189 0.7482877969741821 
vn 0.0018831990892067552 -0.6198199987411499 0.7847417593002319 
vn 1.6368704352023866e-13 -0.5268691182136536 0.8499464392662048 
vn -0.0018846469465643167 -0.4739198684692383 0.8805659413337708 
vn 0.0037601967342197895 -0.37102872133255005 0.9286137819290161 
vn 0.0037600426003336906 -0.31356194615364075 0.949560284614563 
vn -0.0018731803866103292 -0.2039123922586441 0.9789873361587524 
vn 0.0018653111765161157 -0.1436787098646164 0.9896226525306702 
vn -0.0017781255301088095 -0.030529234558343887 0.9995322823524475 
vn -0.0017781255301088095 0.030529234558343887 0.9995322823524475 
vn 0.0018653111765161157 0.1436787098646164 0.9896226525306702 
vn -0.0018731803866103292 0.2039123922586441 0.9789873361587524 
vn 0.0037600426003336906 0.31356194615364075 0.949560284614563 
vn 0.0037601967342197895 0.37102872133255005 0.9286137819290161 
vn -0.0018846469465643167 0.4739198684692383 0.8805659413337708 
vn -5.448435756380543e-14 0.5268691182136536 0.8499464392662048 
vn 0.0018831990892067552 0.6198199987411499 0.7847417593002319 
vn 0.0018843116704374552 0.6633715033531189 0.7482877969741821 
vn 0.003772101132199168 0.746827244758606 0.6650074124336243 
vn 0.0018844384467229247 0.7833834886550903 0.6215357780456543 
vn 0.0018856085371226072 0.8510933518409729 0.5250110030174255 
vn -9.095340854168438e-14 0.8795284628868103 0.4758462607860565 
vn 0.003772426163777709 0.9294145107269287 0.3690181374549866 
vn 0.003773372620344162 0.9488654732704163 0.31565824151039124 
vn -0.0018877115799114108 0.9794287085533142 0.2017817199230194 
vn -1.0230570324275615e-13 0.9893063306808472 0.1458524912595749 
vn -1.0336984767505067e-13 0.9995967149734497 0.028397228568792343 
vn -1.0336984767505067e-13 0.9995967149734497 -0.028397228568792343 
vn -0.001888211234472692 0.9893045425415039 -0.1458524912595749 
vn -0.0018877115799114108 0.9794287085533142 -0.2017817199230194 
vn 0.0018890813225880265 0.9488710761070251 -0.31565824151039124 
vn 0.0018886571051552892 0.9294202923774719 -0.3690181374549866 
vn -9.095340854168438e-14 0.8795284628868103 -0.4758462607860565 
vn -8.801309968374874e-14 0.85109543800354 -0.5250110030174255 
vn -8.101113909472074e-14 0.7833857536315918 -0.6215357780456543 
vn 0.001889093779027462 0.746834397315979 -0.6650074124336243 
vn -6.860055465308587e-14 0.6633741855621338 -0.7482877969741821 
vn -0.0018905125325545669 0.6198199391365051 -0.7847417593002319 
vn 0.0037789817433804274 0.5268555879592896 -0.8499464392662048 
vn 0.0037788304034620523 0.47390857338905334 -0.8805659413337708 
vn -3.8370626391937696e-14 0.3710477650165558 -0.9286137819290161 
vn -3.2428259974211573e-14 0.31358450651168823 -0.949560284614563 
vn 0.0018953474937006831 0.2039121836423874 -0.9789873361587524 
vn -0.0018966591451317072 0.14367829263210297 -0.9896226525306702 
vn 0.001920195179991424 0.03052062913775444 -0.9995322823524475 
vn 0.001920195179991424 -0.03052062913775444 -0.9995322823524475 
vn -0.0018966591451317072 -0.14367829263210297 -0.9896226525306702 
vn 0.0018953474937006831 -0.2039121836423874 -0.9789873361587524 
vn 9.714552431797432e-14 -0.31358450651168823 -0.949560284614563 
vn 1.1494710077438602e-13 -0.3710477650165558 -0.9286137819290161 
vn 0.0037788304034620523 -0.47390857338905334 -0.8805659413337708 
vn 0.0037789817433804274 -0.5268555879592896 -0.8499464392662048 
vn -0.0018905125325545669 -0.6198199391365051 -0.7847417593002319 
vn 2.0550706590020257e-13 -0.6633741855621338 -0.7482877969741821 
vn 0.001889093779027462 -0.746834397315979 -0.6650074124336243 
vn 2.426855374645931e-13 -0.7833857536315918 -0.6215357780456543 
vn 2.6441725870483823e-13 -0.85109543800354 -0.5250110030174255 
vn 2.732507959051639e-13 -0.8795284628868103 -0.4758462607860565 
vn 0.0018886571051552892 -0.9294202923774719 -0.3690181374549866 
vn 0.0018890813225880265 -0.9488710761070251 -0.31565824151039124 
vn -0.0018877115799114108 -0.9794287085533142 -0.2017817199230194 
vn -0.001888211234472692 -0.9893045425415039 -0.1458524912595749 
vn 3.096656503269457e-13 -0.9995967149734497 -0.028397228568792343 
vn 3.096656503269457e-13 -0.9995967149734497 0.028397228568792343 
vn -0.999997615814209 -2.0682260971124217e-13 0.002184694167226553 
vn -0.999997615814209 -2.0682260971124217e-13 0.002184694167226553 
vn -0.999997615814209 -2.0682260971124217e-13 0.002184694167226553 
vn -0.999997615814209 -2.0682260971124217e-13 0.002184694167226553 
vn -0.999997615814209 -2.0682260971124217e-13 0.002184694167226553 
vn -0.999997615814209 -2.0682260971124217e-13 0.002184694167226553 
vn -0.999997615814209 -2.0682260971124217e-13 0.002184694167226553 
vn -0.999997615814209 -2.0682260971124217e-13 0.002184694167226553 
vn -0.999997615814209 -2.0682260971124217e-13 0.002184694167226553 
vn -0.999997615814209 -2.0682260971124217e-13 0.002184694167226553 
vn -0.999997615814209 -2.0682260971124217e-13 0.002184694167226553 
vn -0.999997615814209 -2.0682260971124217e-13 0.002184694167226553 
vn -0.999997615814209 -2.0682260971124217e-13 0.002184694167226553 
vn -0.999997615814209 -2.0682260971124217e-13 0.002184694167226553 
vn -0.999997615814209 -2.0682260971124217e-13 0.002184694167226553 
vn -0.999997615814209 -2.0682260971124217e-13 0.002184694167226553 
vn -0.999997615814209 -2.0682260971124217e-13 0.002184694167226553 
vn -0.999997615814209 -2.0682260971124217e-13 0.002184694167226553 
vn -0.999997615814209 -2.0682260971124217e-13 0.002184694167226553 
vn -0.999997615814209 -2.0682260971124217e-13 0.002184694167226553 
vn -0.999997615814209 -2.0682260971124217e-13 0.002184694167226553 
vn -0.999997615814209 -2.0682260971124217e-13 0.002184694167226553 
vn -0.999997615814209 -2.0682260971124217e-13 0.002184694167226553 
vn -0.999997615814209 -2.0682260971124217e-13 0.002184694167226553 
vn -0.999997615814209 -2.0682260971124217e-13 0.002184694167226553 
vn -0.999997615814209 -2.0682260971124217e-13 0.002184694167226553 
vn -0.999997615814209 -2.0682260971124217e-13 0.002184694167226553 
vn -0.999997615814209 -2.0682260971124217e-13 0.002184694167226553 
vn -0.999997615814209 -2.0682260971124217e-13 0.002184694167226553 
vn -0.999997615814209 -2.0682260971124217e-13 0.002184694167226553 
vn -0.999997615814209 -2.0682260971124217e-13 0.002184694167226553 
vn -0.999997615814209 -2.0682260971124217e-13 0.002184694167226553 
vn -0.999997615814209 -2.0682260971124217e-13 0.002184694167226553 
vn -0.999997615814209 -2.0682260971124217e-13 0.002184694167226553 
vn -0.999997615814209 -2.0682260971124217e-13 0.002184694167226553 
vn -0.999997615814209 -2.0682260971124217e-13 0.002184694167226553 
vn -0.999997615814209 -2.0682260971124217e-13 0.002184694167226553 
vn 0.999997615814209 0 0.002184694167226553 
vn 0.999997615814209 0 0.002184694167226553 
vn 0.999997615814209 0 0.002184694167226553 
vn 0.999997615814209 0 0.002184694167226553 
vn 0.999997615814209 0 0.002184694167226553 
vn 0.999997615814209 0 0.002184694167226553 
vn 0.999997615814209 0 0.002184694167226553 
vn 0.999997615814209 0 0.002184694167226553 
vn 0.999997615814209 0 0.002184694167226553 
vn 0.999997615814209 0 0.002184694167226553 
vn 0.999997615814209 0 0.002184694167226553 
vn 0.999997615814209 0 0.002184694167226553 
vn 0.999997615814209 0 0.002184694167226553 
vn 0.999997615814209 0 0.002184694167226553 
vn 0.999997615814209 0 0.002184694167226553 
vn 0.999997615814209 0 0.002184694167226553 
vn 0.999997615814209 0 0.002184694167226553 
vn 0.999997615814209 0 0.002184694167226553 
vn 0.999997615814209 0 0.002184694167226553 
vn 0.999997615814209 0 0.002184694167226553 
vn 0.999997615814209 0 0.002184694167226553 
vn 0.999997615814209 0 0.002184694167226553 
vn 0.999997615814209 0 0.002184694167226553 
vn 0.999997615814209 0 0.002184694167226553 
vn 0.999997615814209 0 0.002184694167226553 
vn 0.999997615814209 0 0.002184694167226553 
vn 0.999997615814209 0 0.002184694167226553 
vn 0.999997615814209 0 0.002184694167226553 
vn 0.999997615814209 0 0.002184694167226553 
vn 0.999997615814209 0 0.002184694167226553 
vn 0.999997615814209 0 0.002184694167226553 
vn 0.999997615814209 0 0.002184694167226553 
vn 0.999997615814209 0 0.002184694167226553 
vn 0.999997615814209 0 0.002184694167226553 
vn 0.999997615814209 0 0.002184694167226553 
vn 0.999997615814209 0 0.002184694167226553 
vn 0.999997615814209 0 0.002184694167226553 
vn 0.999997615814209 0 0.002184694167226553 
vn 0.999997615814209 0 0.002184694167226553 
vn 0.999997615814209 0 0.002184694167226553 
vn 0.999997615814209 0 0.002184694167226553 
vn 0.999997615814209 0 0.002184694167226553 
vn 0.999997615814209 0 0.002184694167226553 
vn 0.999997615814209 0 0.002184694167226553 
vn 0.999997615814209 0 0.002184694167226553 
vn 0.999997615814209 0 0.002184694167226553 
vn 0.999997615814209 0 0.002184694167226553 
vn 0.999997615814209 0 0.002184694167226553 
vn 0.999997615814209 0 0.002184694167226553 
vn 0.999997615814209 0 0.002184694167226553 
vn 0.999997615814209 0 0.002184694167226553 
vn 0.999997615814209 0 0.002184694167226553 
vn 0.999997615814209 0 0.002184694167226553 
vn 0.999997615814209 0 0.002184694167226553 
vn 0.999997615814209 0 0.002184694167226553 
vn 0.999997615814209 0 0.002184694167226553 
vn 0.999997615814209 0 0.002184694167226553 
vn 0.999997615814209 0 0.002184694167226553 
vn 0.999997615814209 0 0.002184694167226553 
vn 0.999997615814209 0 0.002184694167226553 
vn 0.999997615814209 0 0.002184694167226553 
vn 0.999997615814209 0 0.002184694167226553 
vn 0.999997615814209 0 0.002184694167226553 
vn 0.999997615814209 0 0.002184694167226553 
vn 0.999997615814209 0 0.002184694167226553 
vn 0.999997615814209 0 0.002184694167226553 
vn 0.999997615814209 0 0.002184694167226553 
vn 0.999997615814209 0 0.002184694167226553 
vn 0.999997615814209 0 0.002184694167226553 
vn 0.999997615814209 0 0.002184694167226553 
vn 0.999997615814209 0 0.002184694167226553 
vn 0.999997615814209 0 0.002184694167226553 
vn 0.999997615814209 0 0.002184694167226553 
vn 0.999997615814209 0 0.002184694167226553 
vn -0.999997615814209 -2.0682260971124217e-13 0.002184694167226553 
vn -0.999997615814209 -2.0682260971124217e-13 0.002184694167226553 
vn -0.999997615814209 -2.0682260971124217e-13 0.002184694167226553 
vn -0.999997615814209 -2.0682260971124217e-13 0.002184694167226553 
vn -0.999997615814209 -2.0682260971124217e-13 0.002184694167226553 
vn -0.999997615814209 -2.0682260971124217e-13 0.002184694167226553 
vn -0.999997615814209 -2.0682260971124217e-13 0.002184694167226553 
vn -0.999997615814209 -2.0682260971124217e-13 0.002184694167226553 
vn -0.999997615814209 -2.0682260971124217e-13 0.002184694167226553 
vn -0.999997615814209 -2.0682260971124217e-13 0.002184694167226553 
vn -0.999997615814209 -2.0682260971124217e-13 0.002184694167226553 
vn -0.999997615814209 -2.0682260971124217e-13 0.002184694167226553 
vn -0.999997615814209 -2.0682260971124217e-13 0.002184694167226553 
vn -0.999997615814209 -2.0682260971124217e-13 0.002184694167226553 
vn -0.999997615814209 -2.0682260971124217e-13 0.002184694167226553 
vn -0.999997615814209 -2.0682260971124217e-13 0.002184694167226553 
vn -0.999997615814209 -2.0682260971124217e-13 0.002184694167226553 
vn -0.999997615814209 -2.0682260971124217e-13 0.002184694167226553 
vn -0.999997615814209 -2.0682260971124217e-13 0.002184694167226553 
vn -0.999997615814209 -2.0682260971124217e-13 0.002184694167226553 
vn -0.999997615814209 -2.0682260971124217e-13 0.002184694167226553 
vn -0.999997615814209 -2.0682260971124217e-13 0.002184694167226553 
vn -0.999997615814209 -2.0682260971124217e-13 0.002184694167226553 
vn -0.999997615814209 -2.0682260971124217e-13 0.002184694167226553 
vn -0.999997615814209 -2.0682260971124217e-13 0.002184694167226553 
vn -0.999997615814209 -2.0682260971124217e-13 0.002184694167226553 
vn -0.999997615814209 -2.0682260971124217e-13 0.002184694167226553 
vn -0.999997615814209 -2.0682260971124217e-13 0.002184694167226553 
vn -0.999997615814209 -2.0682260971124217e-13 0.002184694167226553 
vn -0.999997615814209 -2.0682260971124217e-13 0.002184694167226553 
vn -0.999997615814209 -2.0682260971124217e-13 0.002184694167226553 
vn -0.999997615814209 -2.0682260971124217e-13 0.002184694167226553 
vn -0.999997615814209 -2.0682260971124217e-13 0.002184694167226553 
vn -0.999997615814209 -2.0682260971124217e-13 0.002184694167226553 
vn -0.999997615814209 -2.0682260971124217e-13 0.002184694167226553 
vn -0.999997615814209 -2.0682260971124217e-13 0.002184694167226553 
vn -0.999997615814209 -2.0682260971124217e-13 0.002184694167226553 
s on 
f 1//1 2//2 3//3 
f 2//2 4//4 3//3 
f 3//3 4//4 5//5 
f 4//4 6//6 5//5 
f 5//5 6//6 7//7 
f 6//6 8//8 7//7 
f 7//7 8//8 9//9 
f 8//8 10//10 9//9 
f 9//9 10//10 11//11 
f 10//10 12//12 11//11 
f 11//11 12//12 13//13 
f 12//12 14//14 13//13 
f 13//13 14//14 15//15 
f 14//14 16//16 15//15 
f 15//15 16//16 17//17 
f 16//16 18//18 17//17 
f 17//17 18//18 19//19 
f 18//18 20//20 19//19 
f 19//19 20//20 21//21 
f 20//20 22//22 21//21 
f 21//21 22//22 23//23 
f 22//22 24//24 23//23 
f 23//23 24//24 25//25 
f 24//24 26//26 25//25 
f 25//25 26//26 27//27 
f 26//26 28//28 27//27 
f 27//27 28//28 29//29 
f 28//28 30//30 29//29 
f 29//29 30//30 31//31 
f 30//30 32//32 31//31 
f 31//31 32//32 33//33 
f 32//32 34//34 33//33 
f 33//33 34//34 35//35 
f 34//34 36//36 35//35 
f 35//35 36//36 37//37 
f 36//36 38//38 37//37 
f 37//37 38//38 39//39 
f 38//38 40//40 39//39 
f 39//39 40//40 41//41 
f 40//40 42//42 41//41 
f 41//41 42//42 43//43 
f 42//42 44//44 43//43 
f 43//43 44//44 45//45 
f 44//44 46//46 45//45 
f 45//45 46//46 47//47 
f 46//46 48//48 47//47 
f 47//47 48//48 49//49 
f 48//48 50//50 49//49 
f 49//49 50//50 51//51 
f 50//50 52//52 51//51 
f 51//51 52//52 53//53 
f 52//52 54//54 53//53 
f 53//53 54//54 55//55 
f 54//54 56//56 55//55 
f 55//55 56//56 57//57 
f 56//56 58//58 57//57 
f 57//57 58//58 59//59 
f 58//58 60//60 59//59 
f 59//59 60//60 61//61 
f 60//60 62//62 61//61 
f 61//61 62//62 63//63 
f 62//62 64//64 63//63 
f 63//63 64//64 65//65 
f 64//64 66//66 65//65 
f 65//65 66//66 67//67 
f 66//66 68//68 67//67 
f 67//67 68//68 69//69 
f 68//68 70//70 69//69 
f 69//69 70//70 71//71 
f 70//70 72//72 71//71 
f 71//71 72//72 73//73 
f 72//72 74//74 73//73 
f 73//73 74//74 74//74 
f 74//74 75//75 74//74 
f 74//74 75//75 75//75 
f 75//75 76//76 75//75 
f 75//75 76//76 77//77 
f 76//76 78//78 77//77 
f 77//77 78//78 77//77 
f 78//78 79//79 77//77 
f 77//77 79//79 77//77 
f 79//79 80//80 77//77 
f 77//77 80//80 77//77 
f 80//80 81//81 77//77 
f 77//77 81//81 77//77 
f 81//81 82//82 77//77 
f 77//77 82//82 77//77 
f 82//82 83//83 77//77 
f 77//77 83//83 77//77 
f 83//83 84//84 77//77 
f 77//77 84//84 77//77 
f 84//84 85//85 77//77 
f 77//77 85//85 77//77 
f 85//85 86//86 77//77 
f 77//77 86//86 77//77 
f 86//86 87//87 77//77 
f 77//77 87//87 77//77 
f 87//87 88//88 77//77 
f 77//77 88//88 77//77 
f 88//88 89//89 77//77 
f 77//77 89//89 77//77 
f 89//89 90//90 77//77 
f 77//77 90//90 77//77 
f 90//90 91//91 77//77 
f 77//77 91//91 77//77 
f 91//91 92//92 77//77 
f 77//77 92//92 77//77 
f 92//92 93//93 77//77 
f 77//77 93//93 77//77 
f 93//93 94//94 77//77 
f 77//77 94//94 77//77 
f 94//94 95//95 77//77 
f 77//77 95//95 77//77 
f 95//95 96//96 77//77 
f 77//77 96//96 77//77 
f 96//96 97//97 77//77 
f 77//77 97//97 77//77 
f 97//97 98//98 77//77 
f 77//77 98//98 77//77 
f 98//98 99//99 77//77 
f 77//77 99//99 77//77 
f 99//99 100//100 77//77 
f 77//77 100//100 77//77 
f 100//100 101//101 77//77 
f 77//77 101//101 77//77 
f 101//101 102//102 77//77 
f 77//77 102//102 77//77 
f 102//102 103//103 77//77 
f 77//77 103//103 77//77 
f 103//103 104//104 77//77 
f 77//77 104//104 77//77 
f 104//104 105//105 77//77 
f 77//77 105//105 77//77 
f 105//105 106//106 77//77 
f 77//77 106//106 77//77 
f 106//106 107//107 77//77 
f 77//77 107//107 77//77 
f 107//107 108//108 77//77 
f 77//77 108//108 77//77 
f 108//108 109//109 77//77 
f 77//77 109//109 77//77 
f 109//109 110//110 77//77 
f 77//77 110//110 77//77 
f 110//110 111//111 77//77 
f 77//77 111//111 75//75 
f 111//111 75//75 75//75 
f 75//75 75//75 112//112 
f 75//75 112//112 112//112 
f 112//112 112//112 113//113 
f 112//112 114//114 113//113 
f 113//113 114//114 115//115 
f 114//114 114//114 115//115 
f 115//115 114//114 116//116 
f 114//114 114//114 116//116 
f 116//116 114//114 117//117 
f 114//114 114//114 117//117 
f 117//117 114//114 118//118 
f 114//114 114//114 118//118 
f 118//118 114//114 119//119 
f 114//114 114//114 119//119 
f 119//119 114//114 120//120 
f 114//114 114//114 120//120 
f 120//120 114//114 121//121 
f 114//114 114//114 121//121 
f 121//121 114//114 122//122 
f 114//114 114//114 122//122 
f 122//122 114//114 123//123 
f 114//114 114//114 123//123 
f 123//123 114//114 124//124 
f 114//114 114//114 124//124 
f 124//124 114//114 125//125 
f 114//114 114//114 125//125 
f 125//125 114//114 126//126 
f 114//114 114//114 126//126 
f 126//126 114//114 127//127 
f 114//114 114//114 127//127 
f 127//127 114//114 128//128 
f 114//114 114//114 128//128 
f 128//128 114//114 129//129 
f 114//114 114//114 129//129 
f 129//129 114//114 130//130 
f 114//114 114//114 130//130 
f 130//130 114//114 131//131 
f 114//114 114//114 131//131 
f 131//131 114//114 132//132 
f 114//114 114//114 132//132 
f 132//132 114//114 133//133 
f 114//114 114//114 133//133 
f 133//133 114//114 134//134 
f 114//114 114//114 134//134 
f 134//134 114//114 135//135 
f 114//114 114//114 135//135 
f 135//135 114//114 136//136 
f 114//114 114//114 136//136 
f 136//136 114//114 137//137 
f 114//114 114//114 137//137 
f 137//137 114//114 138//138 
f 114//114 114//114 138//138 
f 138//138 114//114 139//139 
f 114//114 114//114 139//139 
f 139//139 114//114 140//140 
f 114//114 114//114 140//140 
f 140//140 114//114 141//141 
f 114//114 114//114 141//141 
f 141//141 114//114 142//142 
f 114//114 114//114 142//142 
f 142//142 114//114 143//143 
f 114//114 114//114 143//143 
f 143//143 114//114 144//144 
f 114//114 114//114 144//144 
f 144//144 114//114 145//145 
f 114//114 114//114 145//145 
f 145//145 114//114 146//146 
f 114//114 114//114 146//146 
f 146//146 114//114 147//147 
f 114//114 114//114 147//147 
f 147//147 114//114 148//148 
f 114//114 112//112 148//148 
f 148//148 112//112 112//112 
f 112//112 149//149 112//112 
f 112//112 149//149 149//149 
f 149//149 150//150 149//149 
f 149//149 150//150 151//151 
f 150//150 150//150 151//151 
f 151//151 150//150 152//152 
f 150//150 153//153 152//152 
f 152//152 153//153 154//154 
f 153//153 155//155 154//154 
f 154//154 155//155 156//156 
f 155//155 157//157 156//156 
f 156//156 157//157 158//158 
f 157//157 159//159 158//158 
f 158//158 159//159 160//160 
f 159//159 161//161 160//160 
f 160//160 161//161 162//162 
f 161//161 163//163 162//162 
f 162//162 163//163 164//164 
f 163//163 165//165 164//164 
f 164//164 165//165 166//166 
f 165//165 167//167 166//166 
f 166//166 167//167 168//168 
f 167//167 169//169 168//168 
f 168//168 169//169 170//170 
f 169//169 171//171 170//170 
f 170//170 171//171 172//172 
f 171//171 173//173 172//172 
f 172//172 173//173 174//174 
f 173//173 175//175 174//174 
f 174//174 175//175 176//176 
f 175//175 177//177 176//176 
f 176//176 177//177 178//178 
f 177//177 179//179 178//178 
f 178//178 179//179 180//180 
f 179//179 181//181 180//180 
f 180//180 181//181 182//182 
f 181//181 183//183 182//182 
f 182//182 183//183 184//184 
f 183//183 185//185 184//184 
f 184//184 185//185 186//186 
f 185//185 187//187 186//186 
f 186//186 187//187 188//188 
f 187//187 189//189 188//188 
f 188//188 189//189 190//190 
f 189//189 191//191 190//190 
f 190//190 191//191 192//192 
f 191//191 193//193 192//192 
f 192//192 193//193 194//194 
f 193//193 195//195 194//194 
f 194//194 195//195 196//196 
f 195//195 197//197 196//196 
f 196//196 197//197 198//198 
f 197//197 199//199 198//198 
f 198//198 199//199 200//200 
f 199//199 201//201 200//200 
f 200//200 201//201 202//202 
f 201//201 203//203 202//202 
f 202//202 203//203 204//204 
f 203//203 205//205 204//204 
f 204//204 205//205 206//206 
f 205//205 207//207 206//206 
f 206//206 207//207 208//208 
f 207//207 209//209 208//208 
f 208//208 209//209 210//210 
f 209//209 211//211 210//210 
f 210//210 211//211 212//212 
f 211//211 213//213 212//212 
f 212//212 213//213 214//214 
f 213//213 215//215 214//214 
f 214//214 215//215 216//216 
f 215//215 217//217 216//216 
f 216//216 217//217 218//218 
f 217//217 219//219 218//218 
f 218//218 219//219 220//220 
f 219//219 221//221 220//220 
f 220//220 221//221 222//222 
f 221//221 222//222 222//222 
f 222//222 222//222 223//223 
f 222//222 223//223 223//223 
f 223//223 223//223 224//224 
f 223//223 225//225 224//224 
f 224//224 225//225 224//224 
f 225//225 226//226 224//224 
f 224//224 226//226 227//227 
f 226//226 228//228 227//227 
f 227//227 228//228 229//229 
f 228//228 230//230 229//229 
f 229//229 230//230 231//231 
f 230//230 232//232 231//231 
f 231//231 232//232 233//233 
f 232//232 234//234 233//233 
f 233//233 234//234 235//235 
f 234//234 236//236 235//235 
f 235//235 236//236 237//237 
f 236//236 238//238 237//237 
f 237//237 238//238 239//239 
f 238//238 240//240 239//239 
f 239//239 240//240 241//241 
f 240//240 242//242 241//241 
f 241//241 242//242 243//243 
f 242//242 244//244 243//243 
f 243//243 244//244 245//245 
f 244//244 246//246 245//245 
f 245//245 246//246 247//247 
f 246//246 248//248 247//247 
f 247//247 248//248 249//249 
f 248//248 250//250 249//249 
f 249//249 250//250 251//251 
f 250//250 252//252 251//251 
f 251//251 252//252 253//253 
f 252//252 254//254 253//253 
f 253//253 254//254 255//255 
f 254//254 256//256 255//255 
f 255//255 256//256 257//257 
f 256//256 258//258 257//257 
f 257//257 258//258 259//259 
f 258//258 260//260 259//259 
f 259//259 260//260 261//261 
f 260//260 262//262 261//261 
f 261//261 262//262 263//263 
f 262//262 264//264 263//263 
f 263//263 264//264 265//265 
f 264//264 266//266 265//265 
f 265//265 266//266 267//267 
f 266//266 268//268 267//267 
f 267//267 268//268 269//269 
f 268//268 270//270 269//269 
f 269//269 270//270 271//271 
f 270//270 272//272 271//271 
f 271//271 272//272 273//273 
f 272//272 274//274 273//273 
f 273//273 274//274 275//275 
f 274//274 276//276 275//275 
f 275//275 276//276 277//277 
f 276//276 278//278 277//277 
f 277//277 278//278 279//279 
f 278//278 280//280 279//279 
f 279//279 280//280 281//281 
f 280//280 282//282 281//281 
f 281//281 282//282 283//283 
f 282//282 284//284 283//283 
f 283//283 284//284 285//285 
f 284//284 286//286 285//285 
f 285//285 286//286 287//287 
f 286//286 288//288 287//287 
f 287//287 288//288 289//289 
f 288//288 290//290 289//289 
f 289//289 290//290 291//291 
f 290//290 292//292 291//291 
f 291//291 292//292 293//293 
f 292//292 294//294 293//293 
f 293//293 294//294 295//295 
f 294//294 296//296 295//295 
f 295//295 296//296 296//296 
f 296//296 297//297 296//296 
f 296//296 297//297 297//297 
f 297//297 298//298 297//297 
f 297//297 298//298 299//299 
f 298//298 298//298 299//299 
f 299//299 298//298 300//300 
f 298//298 298//298 300//300 
f 300//300 298//298 301//301 
f 298//298 298//298 301//301 
f 301//301 298//298 302//302 
f 298//298 298//298 302//302 
f 302//302 298//298 303//303 
f 298//298 298//298 303//303 
f 303//303 298//298 304//304 
f 298//298 298//298 304//304 
f 304//304 298//298 305//305 
f 298//298 306//306 305//305 
f 305//305 306//306 306//306 
f 306//306 297//297 306//306 
f 306//306 297//297 297//297 
f 297//297 307//307 297//297 
f 297//297 307//307 298//298 
f 307//307 308//308 298//298 
f 298//298 308//308 298//298 
f 308//308 309//309 298//298 
f 298//298 309//309 298//298 
f 309//309 310//310 298//298 
f 298//298 310//310 298//298 
f 310//310 311//311 298//298 
f 298//298 311//311 298//298 
f 311//311 312//312 298//298 
f 298//298 312//312 298//298 
f 312//312 313//313 298//298 
f 298//298 313//313 298//298 
f 313//313 314//314 298//298 
f 298//298 314//314 298//298 
f 314//314 315//315 298//298 
f 298//298 315//315 298//298 
f 315//315 316//316 298//298 
f 298//298 316//316 298//298 
f 316//316 317//317 298//298 
f 298//298 317//317 298//298 
f 317//317 318//318 298//298 
f 298//298 318//318 319//319 
f 318//318 319//319 319//319 
f 319//319 319//319 306//306 
f 319//319 306//306 306//306 
f 306//306 306//306 320//320 
f 306//306 298//298 320//320 
f 320//320 298//298 321//321 
f 298//298 298//298 321//321 
f 321//321 298//298 322//322 
f 298//298 298//298 322//322 
f 322//322 298//298 323//323 
f 298//298 298//298 323//323 
f 323//323 298//298 324//324 
f 298//298 298//298 324//324 
f 324//324 298//298 325//325 
f 298//298 298//298 325//325 
f 325//325 298//298 326//326 
f 298//298 298//298 326//326 
f 326//326 298//298 327//327 
f 298//298 298//298 327//327 
f 327//327 298//298 328//328 
f 298//298 298//298 328//328 
f 328//328 298//298 329//329 
f 298//298 298//298 329//329 
f 329//329 298//298 330//330 
f 298//298 298//298 330//330 
f 330//330 298//298 331//331 
f 298//298 298//298 331//331 
f 331//331 298//298 332//332 
f 298//298 298//298 332//332 
f 332//332 298//298 333//333 
f 298//298 319//319 333//333 
f 333//333 319//319 319//319 
f 319//319 334//334 319//319 
f 319//319 334//334 334//334 
f 334//334 335//335 334//334 
f 334//334 335//335 336//336 
f 335//335 337//337 336//336 
f 336//336 337//337 336//336 
f 337//337 338//338 336//336 
f 336//336 338//338 336//336 
f 338//338 339//339 336//336 
f 336//336 339//339 336//336 
f 339//339 340//340 336//336 
f 336//336 340//340 336//336 
f 340//340 341//341 336//336 
f 336//336 341//341 336//336 
f 341//341 342//342 336//336 
f 336//336 342//342 336//336 
f 342//342 343//343 336//336 
f 336//336 343//343 336//336 
f 343//343 344//344 336//336 
f 336//336 344//344 336//336 
f 344//344 345//345 336//336 
f 336//336 345//345 336//336 
f 345//345 346//346 336//336 
f 336//336 346//346 336//336 
f 346//346 347//347 336//336 
f 336//336 347//347 336//336 
f 347//347 348//348 336//336 
f 336//336 348//348 336//336 
f 348//348 349//349 336//336 
f 336//336 349//349 336//336 
f 349//349 350//350 336//336 
f 336//336 350//350 336//336 
f 350//350 351//351 336//336 
f 336//336 351//351 336//336 
f 351//351 352//352 336//336 
f 336//336 352//352 336//336 
f 352//352 353//353 336//336 
f 336//336 353//353 336//336 
f 353//353 354//354 336//336 
f 336//336 354//354 336//336 
f 354//354 355//355 336//336 
f 336//336 355//355 336//336 
f 355//355 356//356 336//336 
f 336//336 356//356 336//336 
f 356//356 357//357 336//336 
f 336//336 357//357 336//336 
f 357//357 358//358 336//336 
f 336//336 358//358 336//336 
f 358//358 359//359 336//336 
f 336//336 359//359 336//336 
f 359//359 360//360 336//336 
f 336//336 360//360 336//336 
f 360//360 361//361 336//336 
f 336//336 361//361 336//336 
f 361//361 362//362 336//336 
f 336//336 362//362 336//336 
f 362//362 363//363 336//336 
f 336//336 363//363 336//336 
f 363//363 364//364 336//336 
f 336//336 364//364 336//336 
f 364//364 365//365 336//336 
f 336//336 365//365 336//336 
f 365//365 366//366 336//336 
f 336//336 366//366 336//336 
f 366//366 367//367 336//336 
f 336//336 367//367 336//336 
f 367//367 368//368 336//336 
f 336//336 368//368 336//336 
f 368//368 369//369 336//336 
f 336//336 369//369 336//336 
f 369//369 370//370 336//336 
f 336//336 370//370 334//334 
f 370//370 334//334 334//334 
f 334//334 334//334 371//371 
f 334//334 371//371 371//371 
f 371//371 371//371 372//372 
f 371//371 373//373 372//372 
f 372//372 373//373 372//372 
f 373//373 374//374 372//372 
f 372//372 374//374 372//372 
f 374//374 375//375 372//372 
f 372//372 375//375 372//372 
f 375//375 376//376 372//372 
f 372//372 376//376 372//372 
f 376//376 377//377 372//372 
f 372//372 377//377 372//372 
f 377//377 378//378 372//372 
f 372//372 378//378 372//372 
f 378//378 379//379 372//372 
f 372//372 379//379 372//372 
f 379//379 380//380 372//372 
f 372//372 380//380 372//372 
f 380//380 381//381 372//372 
f 372//372 381//381 372//372 
f 381//381 382//382 372//372 
f 372//372 382//382 372//372 
f 382//382 383//383 372//372 
f 372//372 383//383 372//372 
f 383//383 384//384 372//372 
f 372//372 384//384 372//372 
f 384//384 385//385 372//372 
f 372//372 385//385 372//372 
f 385//385 386//386 372//372 
f 372//372 386//386 372//372 
f 386//386 387//387 372//372 
f 372//372 387//387 372//372 
f 387//387 388//388 372//372 
f 372//372 388//388 372//372 
f 388//388 389//389 372//372 
f 372//372 389//389 372//372 
f 389//389 390//390 372//372 
f 372//372 390//390 372//372 
f 390//390 391//391 372//372 
f 372//372 391//391 372//372 
f 391//391 392//392 372//372 
f 372//372 392//392 372//372 
f 392//392 393//393 372//372 
f 372//372 393//393 372//372 
f 393//393 394//394 372//372 
f 372//372 394//394 372//372 
f 394//394 395//395 372//372 
f 372//372 395//395 372//372 
f 395//395 396//396 372//372 
f 372//372 396//396 372//372 
f 396//396 397//397 372//372 
f 372//372 397//397 372//372 
f 397//397 398//398 372//372 
f 372//372 398//398 372//372 
f 398//398 399//399 372//372 
f 372//372 399//399 372//372 
f 399//399 400//400 372//372 
f 372//372 400//400 372//372 
f 400//400 401//401 372//372 
f 372//372 401//401 372//372 
f 401//401 402//402 372//372 
f 372//372 402//402 372//372 
f 402//402 403//403 372//372 
f 372//372 403//403 372//372 
f 403//403 404//404 372//372 
f 372//372 404//404 372//372 
f 404//404 405//405 372//372 
f 372//372 405//405 372//372 
f 405//405 406//406 372//372 
f 372//372 406//406 372//372 
f 406//406 407//407 372//372 
f 372//372 407//407 371//371 
f 407//407 371//371 371//371 
f 371//371 371//371 408//408 
f 371//371 408//408 408//408 
f 408//408 408//408 409//409 
f 408//408 410//410 409//409 
f 409//409 410//410 411//411 
f 410//410 410//410 411//411 
f 411//411 410//410 412//412 
f 410//410 410//410 412//412 
f 412//412 410//410 413//413 
f 410//410 410//410 413//413 
f 413//413 410//410 414//414 
f 410//410 410//410 414//414 
f 414//414 410//410 415//415 
f 410//410 410//410 415//415 
f 415//415 410//410 416//416 
f 410//410 410//410 416//416 
f 416//416 410//410 417//417 
f 410//410 410//410 417//417 
f 417//417 410//410 418//418 
f 410//410 410//410 418//418 
f 418//418 410//410 419//419 
f 410//410 410//410 419//419 
f 419//419 410//410 420//420 
f 410//410 410//410 420//420 
f 420//420 410//410 421//421 
f 410//410 410//410 421//421 
f 421//421 410//410 422//422 
f 410//410 410//410 422//422 
f 422//422 410//410 423//423 
f 410//410 410//410 423//423 
f 423//423 410//410 424//424 
f 410//410 410//410 424//424 
f 424//424 410//410 425//425 
f 410//410 410//410 425//425 
f 425//425 410//410 426//426 
f 410//410 410//410 426//426 
f 426//426 410//410 427//427 
f 410//410 410//410 427//427 
f 427//427 410//410 428//428 
f 410//410 410//410 428//428 
f 428//428 410//410 429//429 
f 410//410 410//410 429//429 
f 429//429 410//410 430//430 
f 410//410 410//410 430//430 
f 430//430 410//410 431//431 
f 410//410 410//410 431//431 
f 431//431 410//410 432//432 
f 410//410 410//410 432//432 
f 432//432 410//410 433//433 
f 410//410 410//410 433//433 
f 433//433 410//410 434//434 
f 410//410 410//410 434//434 
f 434//434 410//410 435//435 
f 410//410 410//410 435//435 
f 435//435 410//410 436//436 
f 410//410 410//410 436//436 
f 436//436 410//410 437//437 
f 410//410 410//410 437//437 
f 437//437 410//410 438//438 
f 410//410 410//410 438//438 
f 438//438 410//410 439//439 
f 410//410 410//410 439//439 
f 439//439 410//410 440//440 
f 410//410 410//410 440//440 
f 440//440 410//410 441//441 
f 410//410 410//410 441//441 
f 441//441 410//410 442//442 
f 410//410 410//410 442//442 
f 442//442 410//410 443//443 
f 410//410 410//410 443//443 
f 443//443 410//410 444//444 
f 410//410 408//408 444//444 

